# xmcd
#
# Track frame offsets:
#	151
#	12490
#	26275
#	58774
#	72381
#	90644
#	102949
#	109918
#	139075
#	156882
#	179945
#
# Disc length: 3009 seconds
#
# Revision: 0
# Processed by: cddbd v1.5.1PL0 Copyright (c) Steve Scherf et al.
# Submitted via: EasyCDDAExtractor 8.0.1.1
#
DISCID=9a0bbf0b
DTITLE=Kaucas - I
DYEAR=2000
DGENRE=Gospel
TTITLE0=legioona
TTITLE1=sana
TTITLE2=uljaanaulkona
TTITLE3=aerosolinuijalla
TTITLE4=edustaitä
TTITLE5=haamut
TTITLE6=koodi28
TTITLE7=loska -osa 2
TTITLE8=mitä nyt?
TTITLE9=täysikuuvartioi
TTITLE10=bonus
EXTD=
EXTT0=
EXTT1=
EXTT2=
EXTT3=
EXTT4=
EXTT5=
EXTT6=
EXTT7=
EXTT8=
EXTT9=
EXTT10=
PLAYORDER=
